<!-- icon666.com - MILLIONS vector ICONS FREE --><svg viewBox="0 0 48 48" xmlns="http://www.w3.org/2000/svg"><g id="Log_Out" data-name="Log Out"><path d="m33 31v8a3.0033 3.0033 0 0 1 -3 3h-21a3.0033 3.0033 0 0 1 -3-3v-30a3.0033 3.0033 0 0 1 3-3h21a3.0033 3.0033 0 0 1 3 3v9a1 1 0 0 1 -2 0v-9a1.0007 1.0007 0 0 0 -1-1h-21a1.0007 1.0007 0 0 0 -1 1v30a1.0007 1.0007 0 0 0 1 1h21a1.0007 1.0007 0 0 0 1-1v-8a1 1 0 0 1 2 0zm8.1465-9.123-4.4277-4.5723a1 1 0 1 0 -1.4375 1.3906l4.1687 4.3047h-23.45a1 1 0 0 0 0 2h23.4812l-4.197 4.3018a1 1 0 1 0 1.4316 1.3965l4.4229-4.5332a3.0982 3.0982 0 0 0 .0078-4.2881z" fill="#000000" style="fill: rgb(255, 255, 255);"></path></g></svg>